<?xml version="1.0" encoding="UTF-8" standalone="no"?>
<!-- Creator: CorelDRAW X7 -->

<svg
   xmlns:dc="http://purl.org/dc/elements/1.1/"
   xmlns:cc="http://creativecommons.org/ns#"
   xmlns:rdf="http://www.w3.org/1999/02/22-rdf-syntax-ns#"
   xmlns:svg="http://www.w3.org/2000/svg"
   xmlns="http://www.w3.org/2000/svg"
   xmlns:sodipodi="http://sodipodi.sourceforge.net/DTD/sodipodi-0.dtd"
   xmlns:inkscape="http://www.inkscape.org/namespaces/inkscape"
   xml:space="preserve"
   width="105.82999mm"
   height="12.36mm"
   version="1.1"
   style="clip-rule:evenodd;fill-rule:evenodd;image-rendering:optimizeQuality;shape-rendering:geometricPrecision;text-rendering:geometricPrecision"
   viewBox="0 0 10582.999 1236"
   id="svg2"
   inkscape:version="0.91 r13725"
   sodipodi:docname="Senza titolo-1.svg"><metadata
     id="metadata89"><rdf:RDF><cc:Work
         rdf:about=""><dc:format>image/svg+xml</dc:format><dc:type
           rdf:resource="http://purl.org/dc/dcmitype/StillImage" /><dc:title></dc:title></cc:Work></rdf:RDF></metadata><sodipodi:namedview
     pagecolor="#ffffff"
     bordercolor="#666666"
     borderopacity="1"
     objecttolerance="10"
     gridtolerance="10"
     guidetolerance="10"
     inkscape:pageopacity="0"
     inkscape:pageshadow="2"
     inkscape:window-width="888"
     inkscape:window-height="572"
     id="namedview87"
     showgrid="false"
     fit-margin-top="0"
     fit-margin-left="0"
     fit-margin-right="0"
     fit-margin-bottom="0"
     inkscape:zoom="1.2685914"
     inkscape:cx="169.37129"
     inkscape:cy="20.944634"
     inkscape:window-x="0"
     inkscape:window-y="0"
     inkscape:window-maximized="0"
     inkscape:current-layer="svg2" /><defs
     id="defs4"><style
       type="text/css"
       id="style6"><![CDATA[
    .fil0 {fill:#002D5A}
   ]]></style></defs><g
     id="Livello_x0020_1"
     transform="translate(-5183,-14257)"><metadata
       id="CorelCorpID_0Corel-Layer" /><g
       id="_1821887527984"><polygon
         class="fil0"
         points="5572,14274 5572,14283 5547,14283 5547,14291 5530,14291 5530,14300 5505,14300 5505,14308 5488,14308 5488,14317 5471,14317 5471,14325 5454,14325 5454,14334 5445,14334 5445,14342 5428,14342 5428,14350 5420,14350 5420,14359 5403,14359 5403,14367 5395,14367 5395,14376 5386,14376 5386,14384 5378,14384 5378,14393 5369,14393 5369,14401 5352,14401 5352,14410 5344,14410 5344,14418 5335,14418 5335,14427 5327,14427 5327,14444 5318,14444 5318,14452 5310,14452 5310,14461 5301,14461 5301,14469 5293,14469 5293,14477 5285,14477 5285,14494 5276,14494 5276,14503 5268,14503 5268,14520 5259,14520 5259,14528 5251,14528 5251,14545 5242,14545 5242,14562 5234,14562 5234,14579 5225,14579 5225,14604 5217,14604 5217,14621 5208,14621 5208,14647 5200,14647 5200,14681 5191,14681 5191,14723 5183,14723 5183,14901 5191,14901 5191,14943 5200,14943 5200,14969 5208,14969 5208,14994 5217,14994 5217,15019 5225,15019 5225,15036 5234,15036 5234,15053 5242,15053 5242,15070 5251,15070 5251,15087 5259,15087 5259,15104 5268,15104 5268,15112 5276,15112 5276,15129 5285,15129 5285,15138 5293,15138 5293,15146 5301,15146 5301,15163 5310,15163 5310,15172 5318,15172 5318,15180 5327,15180 5327,15189 5335,15189 5335,15197 5344,15197 5344,15206 5352,15206 5352,15214 5361,15214 5361,15223 5369,15223 5369,15231 5378,15231 5378,15239 5386,15239 5386,15248 5403,15248 5403,15256 5412,15256 5412,15265 5420,15265 5420,15273 5437,15273 5437,15282 5454,15282 5454,15290 5462,15290 5462,15299 5479,15299 5479,15307 5496,15307 5496,15316 5513,15316 5513,15324 5539,15324 5539,15333 5564,15333 5564,15341 5589,15341 5589,15350 5623,15350 5623,15358 5674,15358 5674,15366 6199,15366 6199,15248 6190,15248 6190,15239 5657,15239 5657,15231 5615,15231 5615,15223 5589,15223 5589,15214 5572,15214 5572,15206 5547,15206 5547,15197 5530,15197 5530,15189 5522,15189 5522,15180 5505,15180 5505,15172 5488,15172 5488,15163 5479,15163 5479,15155 5471,15155 5471,15146 5454,15146 5454,15138 5445,15138 5445,15129 5437,15129 5437,15121 5428,15121 5428,15112 5420,15112 5420,15104 5412,15104 5412,15096 5403,15096 5403,15087 5395,15087 5395,15070 5386,15070 5386,15062 5378,15062 5378,15045 5369,15045 5369,15036 5361,15036 5361,15019 5352,15019 5352,15002 5344,15002 5344,14985 5335,14985 5335,14969 5327,14969 5327,14943 5318,14943 5318,14909 5310,14909 5310,14858 5301,14858 5301,14757 5310,14757 5310,14706 5318,14706 5318,14681 5327,14681 5327,14655 5335,14655 5335,14638 5344,14638 5344,14621 5352,14621 5352,14604 5361,14604 5361,14588 5369,14588 5369,14571 5378,14571 5378,14562 5386,14562 5386,14554 5395,14554 5395,14537 5403,14537 5403,14528 5412,14528 5412,14520 5420,14520 5420,14511 5428,14511 5428,14503 5437,14503 5437,14494 5445,14494 5445,14486 5454,14486 5454,14477 5462,14477 5462,14469 5479,14469 5479,14461 5488,14461 5488,14452 5505,14452 5505,14444 5513,14444 5513,14435 5530,14435 5530,14427 5547,14427 5547,14418 5564,14418 5564,14410 5581,14410 5581,14401 5606,14401 5606,14393 5640,14393 5640,14384 5691,14384 5691,14376 5945,14376 5945,14257 5649,14257 5649,14266 5606,14266 5606,14274 "
         id="polygon11"
         style="fill:#002d5a" /><polygon
         class="fil0"
         points="5606,14444 5606,14452 5581,14452 5581,14461 5564,14461 5564,14469 5547,14469 5547,14477 5539,14477 5539,14486 5522,14486 5522,14494 5513,14494 5513,14503 5496,14503 5496,14511 5488,14511 5488,14520 5479,14520 5479,14528 5471,14528 5471,14537 5462,14537 5462,14545 5454,14545 5454,14554 5445,14554 5445,14562 5437,14562 5437,14571 5428,14571 5428,14588 5420,14588 5420,14596 5412,14596 5412,14613 5403,14613 5403,14621 5395,14621 5395,14638 5386,14638 5386,14655 5378,14655 5378,14681 5369,14681 5369,14706 5361,14706 5361,14740 5352,14740 5352,14875 5361,14875 5361,14909 5369,14909 5369,14935 5378,14935 5378,14960 5386,14960 5386,14977 5395,14977 5395,14985 5403,14985 5403,15002 5412,15002 5412,15019 5420,15019 5420,15028 5428,15028 5428,15036 5437,15036 5437,15045 5445,15045 5445,15053 5454,15053 5454,15070 5471,15070 5471,14757 5479,14757 5479,14723 5488,14723 5488,14698 5496,14698 5496,14681 5505,14681 5505,14672 5513,14672 5513,14655 5522,14655 5522,14647 5530,14647 5530,14638 5539,14638 5539,14621 5555,14621 5555,14613 5564,14613 5564,14604 5572,14604 5572,14596 5581,14596 5581,14588 5598,14588 5598,14579 5615,14579 5615,14571 5632,14571 5632,14562 5657,14562 5657,14554 5708,14554 5708,14545 6013,14545 6013,14554 6063,14554 6063,14562 6089,14562 6089,14571 6106,14571 6106,14579 6123,14579 6123,14588 6140,14588 6140,14596 6148,14596 6148,14604 6165,14604 6165,14613 6174,14613 6174,14621 6182,14621 6182,14630 6190,14630 6190,14638 6199,14638 6199,14655 6207,14655 6207,14664 6216,14664 6216,14681 6224,14681 6224,14698 6233,14698 6233,14715 6241,14715 6241,14748 6250,14748 6250,15366 6368,15366 6368,14731 6360,14731 6360,14698 6351,14698 6351,14672 6343,14672 6343,14655 6334,14655 6334,14638 6326,14638 6326,14621 6317,14621 6317,14604 6309,14604 6309,14596 6301,14596 6301,14579 6292,14579 6292,14571 6284,14571 6284,14562 6275,14562 6275,14554 6267,14554 6267,14545 6258,14545 6258,14537 6250,14537 6250,14528 6241,14528 6241,14520 6233,14520 6233,14511 6224,14511 6224,14503 6216,14503 6216,14494 6199,14494 6199,14486 6190,14486 6190,14477 6174,14477 6174,14469 6157,14469 6157,14461 6140,14461 6140,14452 6114,14452 6114,14444 6089,14444 6089,14435 6047,14435 6047,14427 5674,14427 5674,14435 5632,14435 5632,14444 "
         id="polygon13"
         style="fill:#002d5a" /><polygon
         class="fil0"
         points="5649,14613 5649,14621 5632,14621 5632,14630 5623,14630 5623,14638 5606,14638 5606,14647 5598,14647 5598,14655 5589,14655 5589,14664 5581,14664 5581,14672 5572,14672 5572,14681 5564,14681 5564,14689 5555,14689 5555,14706 5547,14706 5547,14723 5539,14723 5539,14740 5530,14740 5530,14765 5522,14765 5522,15121 5530,15121 5530,15129 5547,15129 5547,15138 5555,15138 5555,15146 5581,15146 5581,15155 5598,15155 5598,15163 5632,15163 5632,15172 5640,15172 5640,15163 5649,15163 5649,14774 5657,14774 5657,14757 5666,14757 5666,14748 5674,14748 5674,14740 5682,14740 5682,14731 5699,14731 5699,14723 5945,14723 5945,14604 5936,14604 5936,14596 5716,14596 5716,14604 5674,14604 5674,14613 "
         id="polygon15"
         style="fill:#002d5a" /><polygon
         class="fil0"
         points="9433,14969 9433,14977 9442,14977 9442,14985 9450,14985 9450,14994 9459,14994 9459,15002 9467,15002 9467,15011 9476,15011 9476,15028 9484,15028 9484,15036 9492,15036 9492,15045 9501,15045 9501,15053 9509,15053 9509,15062 9518,15062 9518,15070 9526,15070 9526,15087 9535,15087 9535,15096 9543,15096 9543,15104 9552,15104 9552,15112 9560,15112 9560,15121 9569,15121 9569,15129 9577,15129 9577,15146 9586,15146 9586,15155 9594,15155 9594,15163 9603,15163 9603,15172 9611,15172 9611,15180 9619,15180 9619,15189 9628,15189 9628,15197 9636,15197 9636,15214 9645,15214 9645,15223 9653,15223 9653,15231 9662,15231 9662,15239 9670,15239 9670,15248 9679,15248 9679,15256 9687,15256 9687,15273 9696,15273 9696,15282 9704,15282 9704,15290 9713,15290 9713,15299 9721,15299 9721,15307 9730,15307 9730,15316 9738,15316 9738,15333 9746,15333 9746,15341 9755,15341 9755,15350 9763,15350 9763,15358 9772,15358 9772,15366 9789,15366 9789,14884 9780,14884 9780,14875 9755,14875 9755,14884 9746,14884 9746,15282 9738,15282 9738,15265 9730,15265 9730,15256 9721,15256 9721,15248 9713,15248 9713,15239 9704,15239 9704,15231 9696,15231 9696,15223 9687,15223 9687,15206 9679,15206 9679,15197 9670,15197 9670,15189 9662,15189 9662,15180 9653,15180 9653,15172 9645,15172 9645,15163 9636,15163 9636,15146 9628,15146 9628,15138 9619,15138 9619,15129 9611,15129 9611,15121 9603,15121 9603,15112 9594,15112 9594,15104 9586,15104 9586,15087 9577,15087 9577,15079 9569,15079 9569,15070 9560,15070 9560,15062 9552,15062 9552,15053 9543,15053 9543,15045 9535,15045 9535,15028 9526,15028 9526,15019 9518,15019 9518,15011 9509,15011 9509,15002 9501,15002 9501,14994 9492,14994 9492,14977 9484,14977 9484,14969 9476,14969 9476,14960 9467,14960 9467,14952 9459,14952 9459,14943 9450,14943 9450,14935 9442,14935 9442,14918 9433,14918 9433,14909 9425,14909 9425,14901 9416,14901 9416,14892 9408,14892 9408,14884 9399,14884 9399,14875 9391,14875 9391,15366 9425,15366 9425,14969 "
         id="polygon17"
         style="fill:#002d5a" /><path
         class="fil0"
         d="m 13887,15045 -9,0 0,17 -8,0 0,8 -17,0 0,9 -17,0 0,8 -127,0 0,-178 118,0 0,9 17,0 0,8 17,0 0,9 9,0 0,8 8,0 0,9 9,0 0,33 8,0 0,26 -8,0 0,34 z m -212,321 34,0 0,-245 51,0 0,8 8,0 0,17 9,0 0,17 8,0 0,9 9,0 0,17 8,0 0,8 8,0 0,17 9,0 0,9 8,0 0,16 9,0 0,17 8,0 0,9 9,0 0,17 8,0 0,8 9,0 0,17 8,0 0,9 9,0 0,17 8,0 0,17 9,0 0,8 8,0 0,8 34,0 0,-16 -9,0 0,-17 -8,0 0,-9 -8,0 0,-17 -9,0 0,-8 -8,0 0,-17 -9,0 0,-17 -8,0 0,-9 -9,0 0,-17 -8,0 0,-8 -9,0 0,-17 -8,0 0,-8 -9,0 0,-17 -8,0 0,-9 -9,0 0,-17 -8,0 0,-17 -9,0 0,-8 -8,0 0,-17 42,0 0,-9 26,0 0,-8 8,0 0,-8 17,0 0,-9 9,0 0,-17 8,0 0,-8 9,0 0,-26 8,0 0,-67 -8,0 0,-26 -9,0 0,-17 -8,0 0,-8 -9,0 0,-9 -8,0 0,-8 -9,0 0,-9 -17,0 0,-8 -25,0 0,-9 -161,0 0,491 z"
         id="path19"
         inkscape:connector-curvature="0"
         style="fill:#002d5a" /><path
         class="fil0"
         d="m 8324,15180 9,0 0,-17 8,0 0,-8 8,0 0,-17 17,0 0,-9 9,0 0,-8 17,0 0,-9 84,0 0,9 17,0 0,8 9,0 0,9 17,0 0,8 8,0 0,17 9,0 0,17 8,0 0,85 -8,0 0,17 -9,0 0,17 -8,0 0,8 -17,0 0,9 -9,0 0,8 -17,0 0,9 -84,0 0,-9 -17,0 0,-8 -9,0 0,-9 -8,0 0,-8 -9,0 0,-9 -8,0 0,-8 -8,0 0,-17 -9,0 0,-85 z m 102,-101 -43,0 0,8 -17,0 0,9 -17,0 0,8 -8,0 0,8 -8,0 0,9 -9,0 0,8 -8,0 0,9 -9,0 0,17 -8,0 0,17 -9,0 0,93 9,0 0,25 8,0 0,17 9,0 0,9 8,0 0,8 9,0 0,9 8,0 0,8 8,0 0,9 17,0 0,8 17,0 0,8 102,0 0,-8 17,0 0,-8 17,0 0,-9 8,0 0,-8 9,0 0,-9 8,0 0,59 -8,0 0,26 -9,0 0,17 -8,0 0,8 -9,0 0,9 -8,0 0,8 -26,0 0,9 -84,0 0,-9 -26,0 0,-8 -8,0 0,-9 -9,0 0,-8 -8,0 0,-9 -8,0 0,-17 -34,0 0,26 8,0 0,17 9,0 0,8 8,0 0,9 9,0 0,8 8,0 0,9 17,0 0,8 25,0 0,8 102,0 0,-8 25,0 0,-8 9,0 0,-9 17,0 0,-8 8,0 0,-17 9,0 0,-9 8,0 0,-17 9,0 0,-25 8,0 0,-313 -34,0 0,42 -8,0 0,-9 -9,0 0,-8 -8,0 0,-8 -17,0 0,-9 -17,0 0,-8 -42,0 0,-9 -17,0 0,9 z"
         id="path21"
         inkscape:connector-curvature="0"
         style="fill:#002d5a" /><polygon
         class="fil0"
         points="7003,14884 7003,14892 6978,14892 6978,14901 6969,14901 6969,14909 6952,14909 6952,14918 6944,14918 6944,14926 6936,14926 6936,14935 6927,14935 6927,14943 6919,14943 6919,14952 6910,14952 6910,14960 6902,14960 6902,14969 6893,14969 6893,14985 6885,14985 6885,15002 6876,15002 6876,15019 6868,15019 6868,15045 6859,15045 6859,15104 6851,15104 6851,15138 6859,15138 6859,15189 6868,15189 6868,15223 6876,15223 6876,15239 6885,15239 6885,15256 6893,15256 6893,15265 6902,15265 6902,15282 6910,15282 6910,15290 6919,15290 6919,15299 6927,15299 6927,15307 6936,15307 6936,15316 6944,15316 6944,15324 6961,15324 6961,15333 6969,15333 6969,15341 6986,15341 6986,15350 7003,15350 7003,15358 7029,15358 7029,15366 7071,15366 7071,15375 7147,15375 7147,15366 7190,15366 7190,15358 7215,15358 7215,15350 7232,15350 7232,15341 7249,15341 7249,15333 7257,15333 7257,15324 7266,15324 7266,15316 7283,15316 7283,15273 7274,15273 7274,15282 7257,15282 7257,15290 7249,15290 7249,15299 7232,15299 7232,15307 7215,15307 7215,15316 7198,15316 7198,15324 7173,15324 7173,15333 7037,15333 7037,15324 7012,15324 7012,15316 6995,15316 6995,15307 6986,15307 6986,15299 6969,15299 6969,15290 6961,15290 6961,15282 6952,15282 6952,15273 6944,15273 6944,15265 6936,15265 6936,15256 6927,15256 6927,15239 6919,15239 6919,15223 6910,15223 6910,15206 6902,15206 6902,15180 6893,15180 6893,15062 6902,15062 6902,15028 6910,15028 6910,15011 6919,15011 6919,15002 6927,15002 6927,14985 6936,14985 6936,14977 6944,14977 6944,14969 6952,14969 6952,14960 6961,14960 6961,14952 6969,14952 6969,14943 6978,14943 6978,14935 6995,14935 6995,14926 7012,14926 7012,14918 7029,14918 7029,14909 7071,14909 7071,14901 7147,14901 7147,14909 7190,14909 7190,14918 7206,14918 7206,14926 7232,14926 7232,14935 7240,14935 7240,14943 7257,14943 7257,14952 7266,14952 7266,14960 7283,14960 7283,14918 7266,14918 7266,14909 7257,14909 7257,14901 7240,14901 7240,14892 7223,14892 7223,14884 7198,14884 7198,14875 7156,14875 7156,14867 7063,14867 7063,14875 7029,14875 7029,14884 "
         id="polygon23"
         style="fill:#002d5a" /><path
         class="fil0"
         d="m 12507,15265 -9,0 0,17 -8,0 0,17 -9,0 0,8 -8,0 0,9 -17,0 0,8 -17,0 0,9 -85,0 0,-9 -17,0 0,-8 -8,0 0,-9 -9,0 0,-8 -8,0 0,-9 -9,0 0,-8 -8,0 0,-26 -9,0 0,-76 9,0 0,-17 8,0 0,-8 9,0 0,-9 8,0 0,-8 9,0 0,-9 8,0 0,-8 17,0 0,-9 85,0 0,9 17,0 0,8 17,0 0,9 8,0 0,8 9,0 0,17 8,0 0,17 9,0 0,34 8,0 0,17 -8,0 0,34 z m 0,-144 -9,0 0,-9 -8,0 0,-8 -9,0 0,-8 -17,0 0,-9 -17,0 0,-8 -42,0 0,-9 -17,0 0,9 -42,0 0,8 -17,0 0,9 -17,0 0,8 -9,0 0,8 -8,0 0,9 -9,0 0,8 -8,0 0,9 -8,0 0,17 -9,0 0,25 -8,0 0,85 8,0 0,25 9,0 0,17 8,0 0,9 8,0 0,8 9,0 0,9 8,0 0,8 9,0 0,9 17,0 0,8 17,0 0,8 101,0 0,-8 17,0 0,-8 17,0 0,-9 9,0 0,-8 8,0 0,-9 9,0 0,42 33,0 0,-508 -33,0 0,263 z"
         id="path25"
         inkscape:connector-curvature="0"
         style="fill:#002d5a" /><path
         class="fil0"
         d="m 11778,15180 9,0 0,-17 8,0 0,-17 9,0 0,-8 8,0 0,-9 9,0 0,-8 17,0 0,-9 101,0 0,9 9,0 0,8 17,0 0,9 8,0 0,8 9,0 0,9 8,0 0,17 9,0 0,17 -221,0 0,-9 z m 94,-101 -34,0 0,8 -26,0 0,9 -8,0 0,8 -17,0 0,8 -9,0 0,9 -8,0 0,17 -8,0 0,8 -9,0 0,26 -8,0 0,34 -9,0 0,33 9,0 0,34 8,0 0,26 9,0 0,8 8,0 0,9 8,0 0,8 9,0 0,9 8,0 0,8 9,0 0,9 8,0 0,8 26,0 0,8 42,0 0,9 17,0 0,-9 42,0 0,-8 26,0 0,-8 8,0 0,-9 17,0 0,-8 9,0 0,-9 8,0 0,-17 9,0 0,-25 -34,0 0,17 -9,0 0,8 -8,0 0,9 -9,0 0,8 -17,0 0,9 -101,0 0,-9 -17,0 0,-8 -9,0 0,-9 -8,0 0,-8 -9,0 0,-17 -8,0 0,-17 -9,0 0,-42 254,0 0,-9 9,0 0,-8 -9,0 0,-43 -8,0 0,-17 -8,0 0,-17 -9,0 0,-8 -8,0 0,-9 -9,0 0,-8 -17,0 0,-8 -8,0 0,-9 -17,0 0,-8 -43,0 0,-9 -33,0 0,9 z"
         id="path27"
         inkscape:connector-curvature="0"
         style="fill:#002d5a" /><path
         class="fil0"
         d="m 13184,15180 8,0 0,-17 9,0 0,-17 8,0 0,-8 9,0 0,-9 8,0 0,-8 17,0 0,-9 93,0 0,9 17,0 0,8 17,0 0,9 9,0 0,8 8,0 0,17 9,0 0,17 8,0 0,9 -220,0 0,-9 z m 93,-101 -34,0 0,8 -25,0 0,9 -9,0 0,8 -17,0 0,8 -8,0 0,9 -9,0 0,17 -8,0 0,8 -8,0 0,17 -9,0 0,34 -8,0 0,51 8,0 0,25 9,0 0,26 8,0 0,8 8,0 0,9 9,0 0,17 17,0 0,8 8,0 0,9 9,0 0,8 25,0 0,8 43,0 0,9 16,0 0,-9 43,0 0,-8 17,0 0,-8 17,0 0,-9 8,0 0,-8 9,0 0,-9 8,0 0,-8 9,0 0,-9 8,0 0,-17 -8,0 0,-8 -26,0 0,17 -8,0 0,8 -9,0 0,9 -17,0 0,8 -17,0 0,9 -93,0 0,-9 -17,0 0,-8 -8,0 0,-9 -9,0 0,-8 -8,0 0,-9 -9,0 0,-17 -8,0 0,-50 254,0 0,-51 -9,0 0,-26 -8,0 0,-8 -8,0 0,-17 -9,0 0,-9 -8,0 0,-8 -17,0 0,-8 -9,0 0,-9 -25,0 0,-8 -34,0 0,-9 -34,0 0,9 z"
         id="path29"
         inkscape:connector-curvature="0"
         style="fill:#002d5a" /><path
         class="fil0"
         d="m 12634,15180 8,0 0,-17 9,0 0,-17 8,0 0,-8 8,0 0,-9 17,0 0,-8 9,0 0,-9 101,0 0,9 17,0 0,8 9,0 0,9 8,0 0,8 9,0 0,9 8,0 0,17 9,0 0,17 -220,0 0,-9 z m 93,-101 -34,0 0,8 -26,0 0,9 -8,0 0,8 -8,0 0,8 -9,0 0,9 -8,0 0,8 -9,0 0,9 -8,0 0,17 -9,0 0,17 -8,0 0,101 8,0 0,17 9,0 0,17 8,0 0,9 9,0 0,8 8,0 0,9 9,0 0,8 8,0 0,9 17,0 0,8 17,0 0,8 42,0 0,9 26,0 0,-9 33,0 0,-8 26,0 0,-8 8,0 0,-9 17,0 0,-8 9,0 0,-9 8,0 0,-17 9,0 0,-8 8,0 0,-9 -8,0 0,-8 -26,0 0,8 -8,0 0,9 -9,0 0,8 -8,0 0,9 -9,0 0,8 -17,0 0,9 -93,0 0,-9 -17,0 0,-8 -17,0 0,-9 -8,0 0,-8 -8,0 0,-17 -9,0 0,-17 -8,0 0,-42 254,0 0,-9 8,0 0,-17 -8,0 0,-34 -9,0 0,-17 -8,0 0,-17 -9,0 0,-8 -8,0 0,-9 -9,0 0,-8 -8,0 0,-8 -17,0 0,-9 -17,0 0,-8 -42,0 0,-9 -34,0 0,9 z"
         id="path31"
         inkscape:connector-curvature="0"
         style="fill:#002d5a" /><path
         class="fil0"
         d="m 15504,15180 8,0 0,-17 9,0 0,-17 8,0 0,-8 9,0 0,-9 8,0 0,-8 17,0 0,-9 102,0 0,9 17,0 0,8 8,0 0,9 9,0 0,8 8,0 0,9 8,0 0,17 9,0 0,17 -220,0 0,-9 z m 93,-101 -34,0 0,8 -25,0 0,9 -9,0 0,8 -8,0 0,8 -17,0 0,17 -9,0 0,9 -8,0 0,8 -9,0 0,26 -8,0 0,42 -9,0 0,17 9,0 0,42 8,0 0,17 9,0 0,17 8,0 0,9 9,0 0,8 8,0 0,9 9,0 0,8 8,0 0,9 17,0 0,8 17,0 0,8 42,0 0,9 17,0 0,-9 43,0 0,-8 25,0 0,-8 9,0 0,-9 16,0 0,-8 9,0 0,-9 8,0 0,-17 9,0 0,-25 -34,0 0,17 -8,0 0,8 -9,0 0,9 -8,0 0,8 -17,0 0,9 -102,0 0,-9 -17,0 0,-8 -8,0 0,-9 -9,0 0,-8 -8,0 0,-17 -9,0 0,-17 -8,0 0,-42 254,0 0,-9 8,0 0,-8 -8,0 0,-43 -9,0 0,-17 -8,0 0,-17 -9,0 0,-8 -8,0 0,-9 -9,0 0,-8 -8,0 0,-8 -17,0 0,-9 -17,0 0,-8 -42,0 0,-9 -34,0 0,9 z"
         id="path33"
         inkscape:connector-curvature="0"
         style="fill:#002d5a" /><path
         class="fil0"
         d="m 14395,15180 8,0 0,-17 9,0 0,-17 8,0 0,-8 9,0 0,-9 8,0 0,-8 17,0 0,-9 102,0 0,9 16,0 0,8 9,0 0,9 8,0 0,8 9,0 0,9 8,0 0,17 9,0 0,17 -220,0 0,-9 z m 93,-101 -34,0 0,8 -25,0 0,9 -9,0 0,8 -8,0 0,8 -9,0 0,9 -8,0 0,8 -9,0 0,9 -8,0 0,8 -9,0 0,26 -8,0 0,101 8,0 0,17 9,0 0,17 8,0 0,9 9,0 0,8 8,0 0,9 9,0 0,8 8,0 0,9 17,0 0,8 17,0 0,8 42,0 0,9 17,0 0,-9 43,0 0,-8 25,0 0,-8 8,0 0,-9 17,0 0,-8 9,0 0,-9 8,0 0,-17 9,0 0,-8 8,0 0,-9 -8,0 0,-8 -34,0 0,17 -9,0 0,8 -8,0 0,9 -9,0 0,8 -16,0 0,9 -102,0 0,-9 -17,0 0,-8 -8,0 0,-9 -9,0 0,-8 -8,0 0,-17 -9,0 0,-17 -8,0 0,-42 254,0 0,-9 8,0 0,-17 -8,0 0,-34 -9,0 0,-17 -8,0 0,-17 -9,0 0,-8 -8,0 0,-9 -9,0 0,-8 -8,0 0,-8 -17,0 0,-9 -17,0 0,-8 -42,0 0,-9 -34,0 0,9 z"
         id="path35"
         inkscape:connector-curvature="0"
         style="fill:#002d5a" /><path
         class="fil0"
         d="m 11304,15180 9,0 0,-17 8,0 0,-17 9,0 0,-8 8,0 0,-9 17,0 0,-8 17,0 0,-9 85,0 0,9 17,0 0,8 8,0 0,9 9,0 0,8 8,0 0,9 9,0 0,8 8,0 0,17 8,0 0,85 -8,0 0,17 -8,0 0,8 -9,0 0,9 -8,0 0,8 -9,0 0,9 -8,0 0,8 -17,0 0,9 -85,0 0,-9 -17,0 0,-8 -8,0 0,-9 -17,0 0,-17 -9,0 0,-8 -8,0 0,-17 -9,0 0,-85 z m 102,-101 -42,0 0,8 -17,0 0,9 -17,0 0,8 -9,0 0,8 -8,0 0,9 -9,0 0,8 -8,0 0,9 -9,0 0,17 -8,0 0,17 -9,0 0,34 -8,0 0,33 8,0 0,34 9,0 0,17 8,0 0,17 9,0 0,9 8,0 0,8 9,0 0,9 8,0 0,8 9,0 0,9 17,0 0,8 17,0 0,8 101,0 0,-8 17,0 0,-8 17,0 0,-9 9,0 0,-8 8,0 0,-9 8,0 0,42 34,0 0,-287 -34,0 0,42 -8,0 0,-9 -8,0 0,-8 -9,0 0,-8 -17,0 0,-9 -17,0 0,-8 -42,0 0,-9 -17,0 0,9 z"
         id="path37"
         inkscape:connector-curvature="0"
         style="fill:#002d5a" /><path
         class="fil0"
         d="m 9882,15180 8,0 0,-17 9,0 0,-8 8,0 0,-9 9,0 0,-8 8,0 0,-9 9,0 0,-8 17,0 0,-9 84,0 0,9 17,0 0,8 17,0 0,9 9,0 0,8 8,0 0,17 9,0 0,17 8,0 0,85 -8,0 0,17 -9,0 0,17 -8,0 0,8 -17,0 0,9 -9,0 0,8 -17,0 0,9 -84,0 0,-9 -17,0 0,-8 -9,0 0,-9 -8,0 0,-8 -9,0 0,-9 -8,0 0,-8 -9,0 0,-17 -8,0 0,-85 z m 102,-101 -43,0 0,8 -17,0 0,9 -17,0 0,8 -8,0 0,8 -9,0 0,9 -8,0 0,8 -9,0 0,9 -8,0 0,17 -8,0 0,17 -9,0 0,93 9,0 0,25 8,0 0,17 8,0 0,9 9,0 0,8 8,0 0,9 9,0 0,8 8,0 0,9 17,0 0,8 17,0 0,8 102,0 0,-8 17,0 0,-8 17,0 0,-9 8,0 0,-8 9,0 0,-9 8,0 0,42 34,0 0,-287 -34,0 0,42 -8,0 0,-9 -9,0 0,-8 -8,0 0,-8 -17,0 0,-9 -17,0 0,-8 -43,0 0,-9 -16,0 0,9 z"
         id="path39"
         inkscape:connector-curvature="0"
         style="fill:#002d5a" /><polygon
         class="fil0"
         points="15224,15172 15224,15146 15233,15146 15233,15129 15250,15129 15250,15121 15258,15121 15258,15112 15343,15112 15343,15121 15351,15121 15351,15129 15360,15129 15360,15138 15368,15138 15368,15155 15377,15155 15377,15366 15411,15366 15411,15146 15402,15146 15402,15121 15394,15121 15394,15112 15385,15112 15385,15104 15377,15104 15377,15096 15368,15096 15368,15087 15351,15087 15351,15079 15309,15079 15309,15070 15292,15070 15292,15079 15250,15079 15250,15087 15241,15087 15241,15096 15224,15096 15224,15104 15216,15104 15216,14858 15182,14858 15182,15366 15216,15366 15216,15172 "
         id="polygon41"
         style="fill:#002d5a" /><path
         class="fil0"
         d="m 10661,15180 8,0 0,-17 9,0 0,-8 8,0 0,-9 9,0 0,-8 8,0 0,-9 9,0 0,-8 17,0 0,-9 84,0 0,9 17,0 0,8 17,0 0,9 9,0 0,8 8,0 0,17 9,0 0,17 8,0 0,85 -8,0 0,17 -9,0 0,8 -8,0 0,17 -17,0 0,9 -9,0 0,8 -17,0 0,9 -84,0 0,-9 -17,0 0,-8 -9,0 0,-9 -8,0 0,-8 -9,0 0,-9 -8,0 0,-8 -9,0 0,-17 -8,0 0,-85 z m 93,-101 -34,0 0,8 -17,0 0,9 -17,0 0,8 -8,0 0,8 -9,0 0,9 -8,0 0,8 -9,0 0,9 -8,0 0,17 -9,0 0,17 -8,0 0,101 8,0 0,17 9,0 0,17 8,0 0,9 9,0 0,8 8,0 0,9 9,0 0,8 8,0 0,9 17,0 0,8 17,0 0,8 102,0 0,-8 17,0 0,-8 17,0 0,-9 8,0 0,-8 9,0 0,-9 8,0 0,-8 8,0 0,-9 9,0 0,-17 8,0 0,-17 9,0 0,-34 8,0 0,-33 -8,0 0,-34 -9,0 0,-17 -8,0 0,-17 -9,0 0,-9 -8,0 0,-8 -8,0 0,-9 -9,0 0,-8 -8,0 0,-8 -9,0 0,-9 -25,0 0,-8 -34,0 0,-9 -34,0 0,9 z"
         id="path43"
         inkscape:connector-curvature="0"
         style="fill:#002d5a" /><path
         class="fil0"
         d="m 9103,15282 -8,0 0,8 -9,0 0,9 -8,0 0,8 -9,0 0,9 -8,0 0,8 -17,0 0,9 -85,0 0,-9 -17,0 0,-8 -8,0 0,-9 -17,0 0,-8 -9,0 0,-17 -8,0 0,-17 -9,0 0,-85 9,0 0,-17 8,0 0,-17 9,0 0,-8 8,0 0,-9 17,0 0,-8 17,0 0,-9 85,0 0,9 17,0 0,8 8,0 0,9 17,0 0,17 9,0 0,8 8,0 0,17 8,0 0,76 -8,0 0,26 z m -119,-203 -33,0 0,8 -26,0 0,9 -8,0 0,8 -9,0 0,8 -8,0 0,9 -9,0 0,8 -8,0 0,9 -9,0 0,8 -8,0 0,26 -9,0 0,25 -8,0 0,42 8,0 0,34 9,0 0,26 8,0 0,8 9,0 0,9 8,0 0,8 9,0 0,9 8,0 0,8 9,0 0,9 17,0 0,8 17,0 0,8 101,0 0,-8 17,0 0,-8 17,0 0,-9 9,0 0,-8 8,0 0,-9 8,0 0,-8 9,0 0,-9 8,0 0,-17 9,0 0,-25 8,0 0,-85 -8,0 0,-25 -9,0 0,-17 -8,0 0,-9 -9,0 0,-8 -8,0 0,-9 -8,0 0,-8 -9,0 0,-8 -17,0 0,-9 -17,0 0,-8 -34,0 0,-9 -34,0 0,9 z"
         id="path45"
         inkscape:connector-curvature="0"
         style="fill:#002d5a" /><path
         class="fil0"
         d="m 7333,15180 9,0 0,-17 8,0 0,-8 9,0 0,-9 8,0 0,-8 9,0 0,-9 8,0 0,-8 17,0 0,-9 85,0 0,9 17,0 0,8 17,0 0,9 8,0 0,8 9,0 0,17 8,0 0,17 9,0 0,85 -9,0 0,17 -8,0 0,17 -9,0 0,8 -17,0 0,9 -8,0 0,8 -17,0 0,9 -85,0 0,-9 -17,0 0,-8 -8,0 0,-9 -9,0 0,-8 -8,0 0,-9 -9,0 0,-8 -8,0 0,-17 -9,0 0,-85 z m 94,-101 -34,0 0,8 -17,0 0,9 -17,0 0,8 -9,0 0,8 -8,0 0,9 -9,0 0,8 -8,0 0,9 -8,0 0,17 -9,0 0,25 -8,0 0,85 8,0 0,25 9,0 0,17 8,0 0,9 8,0 0,8 9,0 0,9 8,0 0,8 9,0 0,9 17,0 0,8 17,0 0,8 101,0 0,-8 17,0 0,-8 17,0 0,-9 9,0 0,-8 8,0 0,-9 9,0 0,-8 8,0 0,-9 9,0 0,-17 8,0 0,-17 8,0 0,-34 9,0 0,-33 -9,0 0,-34 -8,0 0,-26 -8,0 0,-8 -9,0 0,-9 -8,0 0,-8 -9,0 0,-9 -8,0 0,-8 -9,0 0,-8 -8,0 0,-9 -26,0 0,-8 -34,0 0,-9 -33,0 0,9 z"
         id="path47"
         inkscape:connector-curvature="0"
         style="fill:#002d5a" /><polygon
         class="fil0"
         points="10381,15121 10381,15129 10373,15129 10373,15146 10365,15146 10365,15155 10356,15155 10356,15163 10348,15163 10348,15180 10339,15180 10339,15189 10331,15189 10331,15197 10322,15197 10322,15206 10314,15206 10314,15223 10305,15223 10305,15231 10297,15231 10297,15239 10288,15239 10288,15248 10280,15248 10280,15265 10271,15265 10271,15273 10263,15273 10263,15282 10254,15282 10254,15290 10246,15290 10246,15307 10238,15307 10238,15316 10229,15316 10229,15324 10221,15324 10221,15341 10212,15341 10212,15350 10204,15350 10204,15366 10458,15366 10458,15333 10271,15333 10271,15316 10280,15316 10280,15307 10288,15307 10288,15299 10297,15299 10297,15282 10305,15282 10305,15273 10314,15273 10314,15265 10322,15265 10322,15256 10331,15256 10331,15239 10339,15239 10339,15231 10348,15231 10348,15223 10356,15223 10356,15214 10365,15214 10365,15197 10373,15197 10373,15189 10381,15189 10381,15180 10390,15180 10390,15163 10398,15163 10398,15155 10407,15155 10407,15146 10415,15146 10415,15138 10424,15138 10424,15121 10432,15121 10432,15112 10441,15112 10441,15104 10449,15104 10449,15096 10458,15096 10458,15079 10212,15079 10212,15112 10390,15112 10390,15121 "
         id="polygon49"
         style="fill:#002d5a" /><polygon
         class="fil0"
         points="7698,15163 7698,15138 7706,15138 7706,15129 7714,15129 7714,15121 7731,15121 7731,15112 7808,15112 7808,15121 7816,15121 7816,15129 7825,15129 7825,15138 7833,15138 7833,15155 7841,15155 7841,15366 7875,15366 7875,15146 7867,15146 7867,15121 7858,15121 7858,15112 7850,15112 7850,15104 7841,15104 7841,15096 7833,15096 7833,15087 7816,15087 7816,15079 7723,15079 7723,15087 7706,15087 7706,15096 7698,15096 7698,15104 7689,15104 7689,15079 7655,15079 7655,15366 7689,15366 7689,15163 "
         id="polygon51"
         style="fill:#002d5a" /><polygon
         class="fil0"
         points="11025,15163 11025,15138 11033,15138 11033,15129 11042,15129 11042,15121 11059,15121 11059,15112 11135,15112 11135,15121 11143,15121 11143,15129 11152,15129 11152,15138 11160,15138 11160,15155 11169,15155 11169,15366 11203,15366 11203,15146 11194,15146 11194,15121 11186,15121 11186,15112 11177,15112 11177,15104 11169,15104 11169,15096 11160,15096 11160,15087 11143,15087 11143,15079 11050,15079 11050,15087 11033,15087 11033,15096 11025,15096 11025,15104 11016,15104 11016,15079 10983,15079 10983,15366 11016,15366 11016,15163 "
         id="polygon53"
         style="fill:#002d5a" /><polygon
         class="fil0"
         points="7985,15087 7985,15096 7977,15096 7977,15104 7968,15104 7968,15112 7960,15112 7960,15129 7952,15129 7952,15172 7960,15172 7960,15189 7968,15189 7968,15197 7977,15197 7977,15206 7985,15206 7985,15214 8002,15214 8002,15223 8028,15223 8028,15231 8053,15231 8053,15239 8070,15239 8070,15248 8079,15248 8079,15256 8087,15256 8087,15265 8095,15265 8095,15307 8087,15307 8087,15324 8070,15324 8070,15333 8002,15333 8002,15324 7985,15324 7985,15316 7977,15316 7977,15307 7968,15307 7968,15290 7952,15290 7952,15299 7943,15299 7943,15307 7935,15307 7935,15316 7943,15316 7943,15324 7952,15324 7952,15341 7960,15341 7960,15350 7977,15350 7977,15358 7994,15358 7994,15366 8028,15366 8028,15375 8045,15375 8045,15366 8079,15366 8079,15358 8095,15358 8095,15350 8104,15350 8104,15341 8112,15341 8112,15333 8121,15333 8121,15316 8129,15316 8129,15256 8121,15256 8121,15239 8112,15239 8112,15231 8104,15231 8104,15223 8095,15223 8095,15214 8079,15214 8079,15206 8062,15206 8062,15197 8036,15197 8036,15189 8019,15189 8019,15180 8002,15180 8002,15172 7994,15172 7994,15155 7985,15155 7985,15138 7994,15138 7994,15121 8002,15121 8002,15112 8070,15112 8070,15121 8087,15121 8087,15129 8104,15129 8104,15121 8112,15121 8112,15104 8104,15104 8104,15096 8095,15096 8095,15087 8079,15087 8079,15079 8045,15079 8045,15070 8028,15070 8028,15079 7994,15079 7994,15087 "
         id="polygon55"
         style="fill:#002d5a" /><polygon
         class="fil0"
         points="13048,15358 13048,15366 13074,15366 13074,15358 13082,15358 13082,14867 13074,14867 13074,14858 13048,14858 13048,14867 13040,14867 13040,15358 "
         id="polygon57"
         style="fill:#002d5a" /><polygon
         class="fil0"
         points="14962,15087 14962,15096 14953,15096 14953,15104 14937,15104 14937,15112 14928,15112 14928,15121 14920,15121 14920,15129 14911,15129 14911,15146 14903,15146 14903,15163 14894,15163 14894,15189 14886,15189 14886,15256 14894,15256 14894,15282 14903,15282 14903,15299 14911,15299 14911,15307 14920,15307 14920,15324 14928,15324 14928,15333 14937,15333 14937,15341 14953,15341 14953,15350 14962,15350 14962,15358 14987,15358 14987,15366 15021,15366 15021,15375 15047,15375 15047,15366 15089,15366 15089,15358 15106,15358 15106,15350 15123,15350 15123,15307 15114,15307 15114,15316 15097,15316 15097,15324 15080,15324 15080,15333 14987,15333 14987,15324 14970,15324 14970,15316 14962,15316 14962,15307 14953,15307 14953,15299 14945,15299 14945,15290 14937,15290 14937,15273 14928,15273 14928,15248 14920,15248 14920,15197 14928,15197 14928,15172 14937,15172 14937,15155 14945,15155 14945,15146 14953,15146 14953,15138 14962,15138 14962,15129 14970,15129 14970,15121 14987,15121 14987,15112 15080,15112 15080,15121 15097,15121 15097,15129 15114,15129 15114,15138 15123,15138 15123,15096 15114,15096 15114,15087 15089,15087 15089,15079 15055,15079 15055,15070 15021,15070 15021,15079 14979,15079 14979,15087 "
         id="polygon59"
         style="fill:#002d5a" /><polygon
         class="fil0"
         points="14183,15087 14183,15096 14175,15096 14175,15104 14158,15104 14158,15112 14149,15112 14149,15121 14141,15121 14141,15138 14132,15138 14132,15146 14124,15146 14124,15163 14115,15163 14115,15197 14107,15197 14107,15248 14115,15248 14115,15282 14124,15282 14124,15299 14132,15299 14132,15307 14141,15307 14141,15324 14149,15324 14149,15333 14158,15333 14158,15341 14175,15341 14175,15350 14183,15350 14183,15358 14208,15358 14208,15366 14251,15366 14251,15375 14268,15375 14268,15366 14310,15366 14310,15358 14327,15358 14327,15350 14344,15350 14344,15307 14335,15307 14335,15316 14318,15316 14318,15324 14302,15324 14302,15333 14208,15333 14208,15324 14191,15324 14191,15316 14183,15316 14183,15307 14175,15307 14175,15299 14166,15299 14166,15290 14158,15290 14158,15273 14149,15273 14149,15239 14141,15239 14141,15206 14149,15206 14149,15172 14158,15172 14158,15155 14166,15155 14166,15146 14175,15146 14175,15138 14183,15138 14183,15129 14191,15129 14191,15121 14208,15121 14208,15112 14302,15112 14302,15121 14318,15121 14318,15129 14335,15129 14335,15138 14344,15138 14344,15096 14335,15096 14335,15087 14318,15087 14318,15079 14276,15079 14276,15070 14242,15070 14242,15079 14208,15079 14208,15087 "
         id="polygon61"
         style="fill:#002d5a" /><polygon
         class="fil0"
         points="8663,14858 8663,15366 8697,15366 8697,14858 "
         id="polygon63"
         style="fill:#002d5a" /><polygon
         class="fil0"
         points="12955,14858 12955,15366 12989,15366 12989,14858 "
         id="polygon65"
         style="fill:#002d5a" /><polygon
         class="fil0"
         points="11677,15358 11677,14867 11668,14867 11668,14858 11643,14858 11643,15366 11668,15366 11668,15358 "
         id="polygon67"
         style="fill:#002d5a" /><polygon
         class="fil0"
         points="14750,15172 14750,15146 14759,15146 14759,15129 14767,15129 14767,15121 14776,15121 14776,15112 14826,15112 14826,15121 14843,15121 14843,15129 14852,15129 14852,15112 14860,15112 14860,15096 14852,15096 14852,15087 14835,15087 14835,15079 14767,15079 14767,15087 14759,15087 14759,15096 14750,15096 14750,15104 14742,15104 14742,15079 14708,15079 14708,15366 14742,15366 14742,15172 "
         id="polygon69"
         style="fill:#002d5a" /><polygon
         class="fil0"
         points="8756,15079 8756,15366 8790,15366 8790,15079 "
         id="polygon71"
         style="fill:#002d5a" /><polygon
         class="fil0"
         points="10525,15079 10525,15366 10559,15366 10559,15079 "
         id="polygon73"
         style="fill:#002d5a" /><polygon
         class="fil0"
         points="8189,15079 8189,15366 8222,15366 8222,15079 "
         id="polygon75"
         style="fill:#002d5a" /><polygon
         class="fil0"
         points="14005,15079 14005,15366 14039,15366 14039,15079 "
         id="polygon77"
         style="fill:#002d5a" /><polygon
         class="fil0"
         points="8756,15028 8756,15036 8790,15036 8790,15028 8798,15028 8798,15002 8790,15002 8790,14985 8756,14985 8756,14994 8747,14994 8747,15028 "
         id="polygon79"
         style="fill:#002d5a" /><polygon
         class="fil0"
         points="14005,15028 14005,15036 14039,15036 14039,15028 14048,15028 14048,15002 14039,15002 14039,14985 14005,14985 14005,14994 13997,14994 13997,15028 "
         id="polygon81"
         style="fill:#002d5a" /><polygon
         class="fil0"
         points="10525,15019 10525,15028 10534,15028 10534,15036 10559,15036 10559,15028 10568,15028 10568,14994 10559,14994 10559,14985 10525,14985 10525,14994 10517,14994 10517,15019 "
         id="polygon83"
         style="fill:#002d5a" /><polygon
         class="fil0"
         points="8189,15019 8189,15028 8197,15028 8197,15036 8222,15036 8222,15028 8231,15028 8231,14994 8222,14994 8222,14985 8189,14985 8189,14994 8180,14994 8180,15019 "
         id="polygon85"
         style="fill:#002d5a" /></g></g></svg>